<svg xmlns="http://www.w3.org/2000/svg" width="638.552" height="477.241" viewBox="0 0 638.552 477.241">
  <g id="noun-united-states-536084" transform="translate(-248.899 -346.813)" opacity="0.07">
    <path id="Path_33658" data-name="Path 33658" d="M387.213,732.8a190.67,190.67,0,0,0-9.859-16.873c-5.034-7.448-11.765-10.954-17.644-13.146-5.941-2.222-9.874-2.334-11.066.877-3.617,9.754-10.1,2.91-14.7,5.756-4.382,2.715,2.1,10.457-3.925,13.526-3.668,1.874-11.178-3.287-16.654,6.8s-15.995,20.377-19.282,22.132,10.083,7.013,11.613,8.329,26.513-2.414,33.523,2.414S362,789.346,362.222,801.616s5.042,13.806,5.042,13.806,5.477-.218,4.6-4.825-2.845-26.3-2.845-26.3l-3.57-.667s-1.193-3.052-2.349-5.694c-1.816-4.128-3.288-7.231,1.537-14.9S387.213,732.8,387.213,732.8Zm442.013-189.2c-4.987-.826-16.843-3-21.24-5.658a9.47,9.47,0,0,1-4.473-9.166,12.857,12.857,0,0,1-2.439-.652c-.014,0-.036.007-.051.007-.1,0-.16-.069-.254-.091a30.537,30.537,0,0,1-4.44-1.914,22.51,22.51,0,0,0-3.219-1.5c-.532.174-.714,1.667-.819,2.566a19.8,19.8,0,0,1-.45,2.693c-.562,2.095-3.49,4.248-8.231,7.6a47.378,47.378,0,0,0-6.934,5.484,18.956,18.956,0,0,0-3.037,5.31,19.2,19.2,0,0,1-4.313,6.858c-4.3,4.052-9.718,4.44-13.675,4.712-3.585.21-5.988-2.573-7.187-4.531a20.442,20.442,0,0,0-5.643,7.347c-1.116,2.9-3.175,5.056-5.951,7.706,29.325-2.4,65.219-6.716,91.439-14.367a43.33,43.33,0,0,1,.917-12.4Zm-37.514-25c-5.5-.286-14.69,5.146-14.781,5.2a1.778,1.778,0,0,1-1.689.069,1.756,1.756,0,0,1-.961-1.41l-.489-5.313-8.315,1.425a1.755,1.755,0,0,1-1.99-1.3l-1.073-4.3a19.483,19.483,0,0,0-1.606,7.847c-.156,3.414-2.693,5.643-5.139,7.8a19.961,19.961,0,0,0-4.915,5.553c-2.153,4.143-4.237,5.951-5.538,6.752-.029,2.2.33,7.974,4.824,10.4.181.105.232.3.366.442s.352.24.435.442c.014.043,1.747,4.128,4.418,4.128h.181c4.451-.315,8.387-.819,11.53-3.765a16.282,16.282,0,0,0,3.5-5.709,22.112,22.112,0,0,1,3.617-6.227c1.635-1.852,4.636-3.969,7.546-6.024,2.588-1.838,6.5-4.6,6.865-5.665a17.387,17.387,0,0,0,.359-2.189c.246-2.055.5-4.179,2.131-5.216a3.638,3.638,0,0,1,3.255-.261A23.307,23.307,0,0,1,798.007,523l.029.014c-1.454-2.852-3.458-4.277-6.325-4.418Zm-278.688-8.674-76.151-9.228-8.739,58.721,79.315,7.546Zm169.764,44.017c.043.54.069,1.142.076,1.78,3.255.406,7.615.8,9.152.533a23.782,23.782,0,0,0,5.3-2.461,23.775,23.775,0,0,1,4.9-2.3c1.352-.323,3.737-3.414,3.918-5.567.3-3.624,2.5-5.846,6.528-6.6,1.192-.232,2.215-3.893,2.341-7.013l-4.614-39.576-20.4,1.577a4.927,4.927,0,0,1-2.221,1.733,5.971,5.971,0,0,1-5.433-.794c.337,5.821.9,12.447,1.425,18.554.891,10.351,1.334,15.832.975,17.525a27.9,27.9,0,0,1-.863,2.972c-.609,1.867-1.446,4.418-.812,5.274,2.07,2.827,2.236,10.427-.286,12.566a6.956,6.956,0,0,0,.018,1.8Zm-6.956,22.8a4.849,4.849,0,0,0,2.519-1.171,10.631,10.631,0,0,1,6.7-2.32c.428-.007,20.13-.457,46.314-2.454.7-.688,1.4-1.366,2.041-1.971,3-2.845,5.169-4.9,6.143-7.434a23.248,23.248,0,0,1,6.521-8.637c-3.8-3.5-4.375-8.822-4.4-11.494a55.179,55.179,0,0,0-9.707-1.109c-2.2.112-4.773-1.109-7.434-2.425a24.284,24.284,0,0,0-6.368-2.425c-.479,2.972-1.7,6.857-4.86,7.456-2.867.54-3.549,1.772-3.69,3.465-.268,3.19-3.421,7.916-6.6,8.674A23.838,23.838,0,0,0,699,556.86c-2.265,1.247-4.606,2.53-6.386,2.845a13.283,13.283,0,0,1-2.062.126,75.158,75.158,0,0,1-8.275-.659,7.417,7.417,0,0,1-.652,1.41,30.131,30.131,0,0,0-2.146,5.147c-1.319,3.766-2.468,7.024-4.86,7.572a3.881,3.881,0,0,1-.834.091,9.931,9.931,0,0,1-4.531-1.7c-.308-.167-.638-.352-.96-.518a5.723,5.723,0,0,1-.007.7,14.65,14.65,0,0,1-2.055,4.937C669.246,576.874,673.755,576.925,675.832,576.74Zm-1.99-6.843c.616-.4,1.689-3.479,2.334-5.313a31.459,31.459,0,0,1,2.483-5.846,7.2,7.2,0,0,0,.637-4.523c-.134-1.656-.271-3.527,1.193-4.763.787-.848.946-6.143-.286-7.818-1.681-2.3-.623-5.56.315-8.42.3-.924.6-1.823.772-2.617.268-1.276-.428-9.362-1.037-16.5-.7-8.126-1.457-17.166-1.656-24.045a24.16,24.16,0,0,1-1.352-4.531c-.218-1.088-.428-2.32-.6-3.661-17.9,1.269-26.619,1.874-30.859,1.979a22.784,22.784,0,0,0,1.555,2.182c3.907,4.755,5.835,9.326,5.3,12.552A4.809,4.809,0,0,1,650.413,502a19.48,19.48,0,0,1-2.512,1.214c-2.95,1.262-4.762,2.2-4.762,5.408,0,3.374-1.544,5.582-2.9,7.531s-2.432,3.487-2.153,6.06c.308,2.9,2.918,6.369,5.216,9.431,2.236,2.979,4.172,5.553,4.425,7.909.1.946.834,1.613,2.138,2.737,2.1,1.794,4.973,4.248,4.665,9.815-.188,3.375.584,3.864,2.272,4.915a11.969,11.969,0,0,1,5.252,5.9,7.445,7.445,0,0,0,2.776,3.66c2.28-.043,4.411,1.1,6.165,2.077a10.785,10.785,0,0,0,2.842,1.239ZM576.75,429.751c-.014-.689-.022-1.366-.036-2.084-.105-6.085-.239-13.667.022-17.781a51.1,51.1,0,0,0-.75-9c-.736-5.415-1.529-12-.616-18.695a143.079,143.079,0,0,1-16.169-.239c-35.271-2.312-30.453-.315-50.229-2.28L503.4,424.974c8.953.96,50.74,5.3,73.353,4.778Zm3.476-19.649c-.247,3.969-.113,11.479-.007,17.51.083,4.7.149,8.409.036,9.71-.1,1.066,2.062,3.367,4.045,4.762a1.761,1.761,0,0,1,.75,1.439v22.5c6.662.577,32.951,2.537,51.769.12a2.928,2.928,0,0,0-.631-1.022,1.266,1.266,0,0,0-1.029-.344c-3.114.2-5.611-2.49-8.17-5.328a37.63,37.63,0,0,0-4.248-4.255c-4.882-3.947-4.854-9.108-4.824-15.629l.007-1.725c0-4.538,2.131-6.879,3.842-8.757,1.334-1.464,2.294-2.519,2.294-4.389,0-5.02,3.157-7.895,7.4-9.866-.344-.489,0-1.352,1.664-3.36,5.11-6.136,17.383-11.388,17.677-16.063s-14.465-.591-20.308-3.8-23.962.442-31.555-8.764c-5.854-7.1-3.893-2.305-20-.877-1.022,6.415-.254,12.783.519,18.47a52.066,52.066,0,0,1,.775,9.67ZM718.442,531.738a26.778,26.778,0,0,1,7.666,2.841c2.131,1.051,4.248,2.146,5.665,2.077,3.175-.218,9.572.968,11.5,1.341.569-.323,2.327-1.537,4.36-5.44a23.184,23.184,0,0,1,5.708-6.579c2.4-2.109,3.871-3.491,3.947-5.328.279-6.158,1.689-10.015,4.088-11.766l-7.111-28.373c-4.944,3.436-9.942,6.452-13.631,7.481a11.411,11.411,0,0,1-1.877.308l-24.382,8.464ZM502.961,428.446l-5.281,42.907,79.138,7.931.344-11.726a1.75,1.75,0,0,1,1.754-1.689h2.628V444.4c-1.682-1.3-5.056-4.313-4.788-7.391.051-.583.054-1.979.036-3.766-1.269.029-2.512.062-3.885.062-23.484,0-61.453-3.94-69.946-4.857Zm197.36,13.827c-3.03.682-10.519,3.219-8.177,23.077,1.431,12.208,1.142,20.414-.33,25.285l19.986-1.544a1.614,1.614,0,0,1,1.877,1.551l.294,2.552L734.2,486.17c-1.043-2.523-.149-6.909,2.063-11.907,3.947-8.913-.442-18.847-3.36-21.185s-6.578,5.846-8.913-1.754-5.281-21.4-13.034-19.649C704.156,433.212,708.313,440.465,700.321,442.273Zm-36.9-17.517c6.375.5,7.72,1.914,8.311,5.6a13.35,13.35,0,0,0,.457,2.109l.217.689c1.08,3.45,1.794,5.581,6.6,4.951a4.08,4.08,0,0,1,.134-3.715c2.483-5.11,18.7-9.642,23.085-9.642s5.988-3.5,5.7-7.013-11.983-1.606-22.208-2.776-14.9-5.111-18.112-8.764-11.106,4.531-15.491,8.329c-.75.66-1.479,1.327-2.2,1.983,1.566,3.933,5.654,7.615,13.509,8.246Zm-165.9,19.213-73.2-12.033-1.011,5.538-5.9,38.488-2.363,16.789L435.659,497l79.474,9.634a1.766,1.766,0,0,1,1.537,1.906l-1,10.257,72.385,3.52a43.638,43.638,0,0,1-3.451-4.241.563.563,0,0,1-.043-.069,15.188,15.188,0,0,1-3.016-6.564c-.743-5.763-3.751-23.672-4.585-28.637l-79.714-7.989-3.262,26.47a1.756,1.756,0,0,1-1.74,1.537,1,1,0,0,1-.21-.014,1.759,1.759,0,0,1-1.53-1.957l3.443-27.978c0-.054-.054-.1-.051-.149.007-.076.076-.112.09-.174Zm267.591,65.169c.014.051-.029.091-.015.141l1.388,5.553,52.737-9.065a12.975,12.975,0,0,1,3.7.189c1.838-2.182,2.842-4.676,2.5-6.586a2.852,2.852,0,0,0-1.62-2.208,5.325,5.325,0,0,1-3.037-3.7c-.8-3.487,1.562-7.677,3.577-10.482-.076-.029-.2-.062-.268-.1-1.823-.786-3.8-2.664-5.716-4.48a20.1,20.1,0,0,0-3.233-2.74c-2.215-.33-26.072,4.451-37.927,7.322-9.5,2.294-12.613-3.023-15.1-7.292-.134-.217-.271-.427-.406-.646-1.4,1.088-2.845,2.19-4.353,3.288l7.7,30.721c.014.04.065.047.08.08ZM641.367,634.828c-.42-12.823,5.2-22.305,9.032-28.652,1.544-2.552,2.867-4.755,3.03-5.988a19.535,19.535,0,0,1,2.439-6.858c.471-.913.914-1.831,1.3-2.784H653.64a1.75,1.75,0,0,1-1.754-1.754v-4.164H603.02v6.814l1.3,1.011a1.727,1.727,0,0,1,.681,1.381v31.653c1.7.576,2.874.99,2.874.99a1.756,1.756,0,0,1,1.171,1.78c-.007.083-.217,3.055-.464,6.948ZM776.373,479.576c.366-.091,36.771-8.554,40.08-7.158,1.149.471,2.392,1.613,4.313,3.436,1.544,1.457,3.451,3.273,4.7,3.82a33.661,33.661,0,0,0,3.479,1.08c3.6,1.022,8.184,2.356,11.262,4.451a7.67,7.67,0,0,1,.562-1.185L827.457,439.85a1.686,1.686,0,0,1-.076-.5V419.111c-8.836,2.236-17.489,4.451-20.428,7.089-5.7,5.111-5.321,15.8-25.132,24.106-9.054,3.8-6.136,13.154-11.975,18.112-1.352,1.156-3.247,2.729-5.4,4.451.21.359.449.7.667,1.051,2.4,4.1,4.277,7.344,11.262,5.654Zm65.183-28.133c-1.214-7.249,2.2-19.46,3.36-23.672.511-1.859-.435-4.367-1.439-7.024a48,48,0,0,1-1.74-5.625c-3.189,1.073-6.969,2.095-10.855,3.084v20.889L835.377,454ZM658.245,586.411c.413-3.809,2.342-6.97,4.038-9.761,1.193-1.943,2.305-3.781,2.544-5.328a2.419,2.419,0,0,0,.043-.826c-.036.05-.315-.1-.554-.2-1.352-.646-3.625-1.718-5.5-5.995a8.451,8.451,0,0,0-3.9-4.328c-2.392-1.493-4.194-3.044-3.918-8.079.218-3.835-1.562-5.357-3.436-6.963-1.45-1.24-3.092-2.656-3.353-5.027-.149-1.4-1.972-3.82-3.73-6.169-2.573-3.422-5.491-7.307-5.911-11.171a9.6,9.6,0,0,1,.42-3.969H589.473c1.313,1.515,2.686,2.987,3.926,4.255.1.1.156.159.247.261l.007.007c2.483,2.552,3.834,4.02,4.241,5.35a16.251,16.251,0,0,1,.5,2.656c.344,2.5.7,5.085,3.82,7.126A1.779,1.779,0,0,1,603,539.72v41.414h50.62a1.751,1.751,0,0,1,1.754,1.754l.007,4.154h2.707c.033-.225.123-.385.152-.631Zm-147.31-19.2,88.576,5.259,0-31.848c-3.737-2.834-4.23-6.394-4.578-9.039a13.219,13.219,0,0,0-.384-2.1A18.655,18.655,0,0,0,591.581,526l-76.242-3.708ZM848.377,428.43c-2.939,10.54-3.955,17.735-3.316,22,2.091-.413,5.7-1.109,9.416-1.794a38.927,38.927,0,0,0,6.8-2.026,41.676,41.676,0,0,1,4.578-1.41,9.119,9.119,0,0,1,.323-.877,10.226,10.226,0,0,1-8.21-6.572c-1.62-4.538-6.977-18.742-9.587-25.629-.083.062-.141.148-.224.2a23.436,23.436,0,0,1-3.1,1.551,42.781,42.781,0,0,0,1.711,5.643c1.207,3.2,2.352,6.234,1.613,8.913ZM544.562,614.191a60.881,60.881,0,0,1,12.215,4.861,23.512,23.512,0,0,0,12,3.2,24.538,24.538,0,0,1,5.926.793c2.251.682,6.191.12,10.015-.427,4.1-.591,7.974-1.149,10.609-.33,1.78.547,4.045,1.3,6.165,2v-29.6l-1.3-1.011a1.727,1.727,0,0,1-.681-1.381V575.974l-90.6-5.379a.189.189,0,0,0-.062-.007l-10.294-.982-.8,7.651,37.289,3.871a1.751,1.751,0,0,1,1.57,1.852l-1.7,27.1c2.088,1.732,5.763,2.889,9.641,4.11ZM680.5,441.411a18.648,18.648,0,0,1-3.03.308c-5.52,0-7.137-3.415-8.416-7.518l-.21-.674a16.9,16.9,0,0,1-.576-2.617c-.293-1.845-.373-2.28-5.118-2.664-8.851-.707-13.849-4.8-16.093-9.41-2.49,1.762-4.988,2.37-7.8-.526a8.28,8.28,0,0,0-2.58-1.769c-6.564,2.124-9.109,4.4-9.109,8.119,0,3.226-1.7,5.1-3.2,6.745-1.577,1.725-2.932,3.219-2.932,6.4l-.007,1.747c-.029,6.017-.051,10,3.52,12.889a43.284,43.284,0,0,1,4.657,4.629c1.983,2.2,3.915,4.1,5.357,4.193a4.693,4.693,0,0,1,3.646,1.291,8.129,8.129,0,0,1,2.131,4.755c0,.022.029.029.029.054s-.015.029-.015.043a15.473,15.473,0,0,1,.188,2.189A36.092,36.092,0,0,0,644,480.469c4.1-.167,19.986-1.24,32.262-2.1-.87-9.3-.594-21.718,3.03-29.072,1.856-3.831,1.783-6.133,1.2-7.884Zm-65.824,29.435c-15.951,0-30.312-1.352-31.472-1.471h-2.588l-.384,11.892c.141.594,3.94,22.98,4.81,29.732a10.67,10.67,0,0,0,1.8,4.081h49.87c.21-.323.428-.652.638-.96,1.221-1.747,2.265-3.255,2.265-5.524,0-5.7,4.15-7.456,6.894-8.62a16.191,16.191,0,0,0,2.048-.982,1.374,1.374,0,0,0,.6-1.022c.268-1.613-.758-5.132-4.545-9.739-5.393-6.579-7.187-16.55-7.187-18.645v-.015a179.935,179.935,0,0,1-22.751,1.272ZM389.049,388.28c4.788,5.883,10.743,13.2,6.64,17.637-1.635,1.78-3.788,4.367-3.556,6.354a4,4,0,0,0,2.077,2.686c2.9,1.935,3.918,4.719,4.886,7.4,1.029,2.845,2.012,5.538,5.274,7.539a25.682,25.682,0,0,0,10.968,3.632,16.783,16.783,0,0,1,3.962.841l.924.373.931-5.118a1.717,1.717,0,0,1,2.012-1.417l74.77,12.28,1.725-14.031c0-.054-.051-.1-.044-.148s.069-.1.083-.156l5.763-46.862c-.428-.051-.78-.083-1.222-.134-22.606-2.469-80.71-11.534-115.363-18.735-2.53,9.376-5.313,20.969-1.591,25.68ZM433.4,500.117l-20.685-4.263a1.752,1.752,0,0,1-1.381-1.957l2.334-16.618c-4.509-.5-17.018-1.964-31.2-4.313l-15.658,77.021,57.844,8.967ZM379,472.376a286.978,286.978,0,0,1-31.2-6.927c-11.922-2.385-22.77-4.973-32.508-7.546-.913,2.523-3.331,9.283-9.079,25.7-5.741,16.379-4.788,17.354-2.483,19.71a20.366,20.366,0,0,1,3.36,4.241c3.947,6.767,34.2,53.523,44.317,68.949a20.933,20.933,0,0,1,1.127-3.393,7.959,7.959,0,0,0,.667-4.944c-.141-1.319.167-5.477,2.418-7.256a3.563,3.563,0,0,1,3.526-.547,8.53,8.53,0,0,0,1.878.489l1.957-9.641c0-.015-.014-.029-.014-.054s.036-.029.036-.054ZM781.019,597.89c-3.5.562-8.808,1.439-12.469-1.066-3.378-2.32-16.078-1.109-20.594,1.972a12.881,12.881,0,0,1-6.549,1.913,41.96,41.96,0,0,0,6.212,4.886c3.331,2.272,5.959,4.074,6.521,6.191.344,1.29,1.486,2.1,3.316,3.331a20.7,20.7,0,0,1,3.947,3.164,22.618,22.618,0,0,0,3.653,2.972c1.957,1.366,3.81,2.671,4.763,4.762A49.362,49.362,0,0,0,775.191,635c5.567-7.742,13.835-11.225,17.873-16.115,1.914-2.312,4.5-5.567,7.292-9.032-7.322-5.959-15.314-11.943-16.926-12.306-.468.014-1.355.17-2.41.344Zm41.617-69.775-4.973-18.525-40.431,6.941.272,2.918c3.374-1.761,9.529-4.585,14.367-4.375,7.419.374,9.731,6.7,10.587,9.874a7.563,7.563,0,0,0,2.925.308,1.72,1.72,0,0,1,1.555.623,1.744,1.744,0,0,1,.323,1.642c-.062.189-1.464,4.988,2.519,7.4,3.6,2.175,14.466,4.284,20.265,5.244,1.08-4.11,2.272-7.651,3.022-10.218l-8.851-.547A1.72,1.72,0,0,1,822.636,528.114Zm6.122,31.377c-20.616,5.951-46.981,9.887-71.507,12.469-.99,1.352-5.372,7.137-10.667,9.648-2.874,1.366-4.69,3.527-6.444,5.611a20.945,20.945,0,0,1-4.487,4.361,18.86,18.86,0,0,0-5.813,6.361,63.315,63.315,0,0,1,7.886-.576c3.52-.083,6.289-.141,8.26-1.479,5.31-3.61,19.641-5.314,24.549-1.972,2.5,1.725,6.963.99,9.917.5a23.5,23.5,0,0,1,3.114-.373c2.454,0,11.239,6.716,19,13.07,4.712-5.792,9.739-11.758,13.287-14.977,6.281-5.7,20.018-15.63,14.325-28.188a21.7,21.7,0,0,1-1.413-4.458ZM781.379,696.167c-4.067-10.884-8.884-22-10.855-32.892-9.482,3.795-37.416,6.822-40.642,6.822-3.393,0-5.3-.33-7.187-2.859l-29.409,2.6,4.788,7.347a35.172,35.172,0,0,0,6.031-2.2c5.553-2.482,12.711,9.642,19.725,9.79s7.448-9.355,15.049-4.972,17.383,14.321,16.506,21.913.442,15.927,5.988,20.309,4.524,7.158,11.247,14.614,7.887,4.382,7.887,10.667,3.07,6.136,8.477,3.07,8.33-9.648,7.159-21.33-8.481-16.074-14.763-32.882Zm-8.086-57.985a48.287,48.287,0,0,1-6.655-10.714c-.554-1.229-1.957-2.2-3.585-3.339a26.652,26.652,0,0,1-4.222-3.465,17.849,17.849,0,0,0-3.331-2.628c-1.99-1.341-4.045-2.722-4.748-5.343-.232-.863-3.168-2.874-5.111-4.208-3.226-2.215-6.724-4.712-8.409-7.6a41.244,41.244,0,0,0-12.726,1.852,54.53,54.53,0,0,1-9.53,1.656,152,152,0,0,0,3.563,15.8c1.32,5.049,2.476,9.4,2.581,11.914a8.447,8.447,0,0,0,1.866,4.7c1.011,1.493,2.146,3.182,1.852,5.658a38.76,38.76,0,0,1-.8,3.856c-1.022,4.248-2.559,10.685-.652,14.951,2.385,5.314,2.932,5.314,6.506,5.314,4.263,0,33.813-3.632,40.124-6.865a42.022,42.022,0,0,1,.42-13.947,28.249,28.249,0,0,1,2.856-7.6ZM688.652,667.57a1.754,1.754,0,0,1,1.417-.982l30.677-2.708c-.181-.4-.374-.743-.569-1.193-2.4-5.343-.689-12.475.442-17.187a33.486,33.486,0,0,0,.729-3.45c.134-1.127-.352-1.9-1.283-3.288a11.889,11.889,0,0,1-2.461-6.513c-.091-2.138-1.247-6.528-2.476-11.171a156.811,156.811,0,0,1-3.654-16.339c-8.26.75-18.92,1.247-29.634,1.562l-1,70.381a50.332,50.332,0,0,0,13.407,1.073l-5.52-8.471a1.778,1.778,0,0,1-.072-1.714ZM839.73,468.429l3.856,12.783a104.117,104.117,0,0,1,14.241-6.586l-3.421-10.355ZM364.963,416.66l-.366.54c-2,2.993-5.723,8.561-5.11,10.707.757,2.671-.638,6.7-2.251,11.352-.616,1.761-1.232,3.534-1.682,5.161-1.228,4.368-4.038,14.226-5.147,18.112,22.794,6.513,56.013,10.413,63.773,11.261l5.448-35.531-1.62-.652a15.116,15.116,0,0,0-3.143-.631,29.1,29.1,0,0,1-12.327-4.111c-4.3-2.642-5.6-6.19-6.731-9.326-.855-2.356-1.6-4.382-3.541-5.687a7.325,7.325,0,0,1-3.61-5.183c-.406-3.367,2.026-6.513,4.458-9.145,2.033-2.208-3.487-9-6.788-13.048l-1.78-2.2c-4.447-5.633-2.385-16.213.917-28.583-2.769-.591-5.393-1.17-7.756-1.725l-10.04,41.266c.033,1.947.058,13.277-2.7,17.423Zm504.366,35.7a11.55,11.55,0,0,1-3.3-3.632c-1.142.315-2.3.706-3.548,1.163a42.559,42.559,0,0,1-7.376,2.2c-5.2.961-10.182,1.943-11,2.1l-7.706,3.2,2.312,7.684,24.8-7.024a1.776,1.776,0,0,1,1.569.315c.174.149,3.983,3.385,3.8,11.766a23.614,23.614,0,0,0,5.7-3.157c3.806-3.512,1.758-9.065-5.256-14.61Zm-44.632,58.7c-.6-1.367-2.244-1.711-3.491-1.794l4.494,16.73,8.119.5c.3-2.371.308-5.071.471-7.826-2.987-1.515-8.246-4.531-9.594-7.608Zm67.568-109.833c-5.7-7.307-9.642-10.812-11.975-18.112S872.1,370.4,867.578,372.446s-12.859,5.846-12.566,12.566c.254,5.756,1.1,17.818-3.893,24.465,2.32,6.136,8.387,22.186,10.138,27.093,1.3,3.639,4.886,4.328,6.611,4.458a14.929,14.929,0,0,0,.576-1.381c1.606-4.824.149-8.764,6.137-13s5.11-9.492,10.96-11.689,12.418-6.426,6.723-13.734Zm-52.549,88.137c-1.816-2.425-8.013-4.179-11.718-5.23a.75.75,0,0,1-.105-.029c-2.707,3.479-4.143,6.745-3.715,8.576A1.874,1.874,0,0,0,825.3,494a6.352,6.352,0,0,1,3.57,4.762c.482,2.755-.547,5.89-2.686,8.709a5.626,5.626,0,0,1,1.725,2.182c.653,1.493,3.78,3.624,6.781,5.266a15.021,15.021,0,0,1,4.248-8.8c4.15-3.961,1.059-10.855.787-16.738,0-.011-.007,0-.015-.018ZM723.434,599.4c.594-.189,1.142-.294,1.725-.45,2.425-4.143,4.628-7.742,8.6-10.308a18.337,18.337,0,0,0,3.7-3.675c1.9-2.258,4.052-4.824,7.622-6.513a24.6,24.6,0,0,0,7.249-5.988c-6.843.681-13.5,1.261-19.782,1.747a1.8,1.8,0,0,1-.7.279c-.167,0-.308-.149-.471-.2-26.184,1.99-45.854,2.44-46.281,2.454a7.293,7.293,0,0,0-4.741,1.675,8.21,8.21,0,0,1-4.237,1.8c-1.193.1-3.063.141-5.006.141-2.678,0-5.455-.061-6.919-.1a16.759,16.759,0,0,0-2.482,6.542,21.717,21.717,0,0,1-2.755,8.141,16.255,16.255,0,0,0-2.077,5.694,9.553,9.553,0,0,1-.877,2.671c8.742-.09,16.807-.239,24.1-.442.008,0,.008-.015.015-.015h.029c.007,0,.007.007.014.007,13.871-.391,24.915-.982,32.592-1.747a59.064,59.064,0,0,0,10.674-1.714ZM857.782,463.307l3.309,10.007c1.472-.584,2.9-1.149,4.255-1.7.5-5.756-1.029-8.717-1.907-9.9ZM366.109,553.42l-1.823,8.942a2.165,2.165,0,0,1-1,1.5c-1.124.758-2.8.7-5.3-.2-.729.2-1.439,2.769-1.29,4.125a11.391,11.391,0,0,1-.924,6.684,18.834,18.834,0,0,0-1.479,6.386c.105.149.272.413.337.5.442.616.917,1.222,1.374,1.809,1.689,2.153,3.287,4.179,2.853,6.423a4.6,4.6,0,0,1-2.447,3.063c-1.341.772-1.859,2.167-2.58,4.36a13.792,13.792,0,0,1-3.541,6.368c-1.936,1.787-2.61,6.738-3.1,10.351-.2,1.486-.421,2.748-.667,3.885,2.019,2.791,6.6,8.815,22.6,15.3,17.93,7.278,17.43,13.048,41.954,17.115l13.034-87.608ZM312.161,603.7c3.07,6.724-1.613,10.519,16.792,10.519,9.37,0,13.009.189,14.557.533.069-.5.149-.968.217-1.493.624-4.6,1.334-9.812,4.208-12.454a10.865,10.865,0,0,0,2.581-4.882c.743-2.258,1.591-4.824,4.157-6.3.511-.3.729-.555.75-.7.134-.674-1.254-2.425-2.167-3.585-.5-.645-1.019-1.3-1.486-1.957-2.573-3.646-43.089-66.158-47.7-74.056a17.238,17.238,0,0,0-2.834-3.57c-3.646-3.7-4.509-5.708,1.663-23.31,5.531-15.77,7.992-22.672,8.989-25.455a419.219,419.219,0,0,1-47.354-15.567c-1.8,5.531-8.9,22.642-8.626,27.572.286,5.259,3.8,10.518,2.776,15.049s-1.606,11.69,1.9,16.949,7.006,26.589,7.593,33.748,9.642,18.26,9.79,24.69-3.654,8.913,11.4,19.431,19.739,18.108,22.8,24.832Zm110.733,41.631s17.677,1.171,19.725,1.171c.055,0,.167.127.232.148h44.055l8.155-77.35-67.449-6.423-13.055,87.692c2.131.315,4.382.616,6.872.906ZM305.007,383.74l.029.645c.069,1.711.181,4.578,1.754,5.861.877.714,2.237.917,4.074.631,4.824-.794,6.814,1.037,8.394,2.5,1.352,1.261,2.363,2.175,5.6,1.591a21.008,21.008,0,0,1,9.8.384c1.627.413,1.935.427,2.334.127,2.813-2.055,3.947-1.892,22.936.906l4.669.689,9.706-39.891c-14.1-3.36-41.548-10.03-48.917-12.483-7.887-2.627-8.434-2.414-9.971,0s-1.754,4.712-6.354,4.165-5.147-4.712-10.406-4.382-4.6,7.126-3.617,9.859-.148,5.7-.682,8.434.682,6.354-1.3,11.066a17.421,17.421,0,0,0-.8,2.65c.841.279,1.769.6,2.545.848,6.249,2,10.015,3.222,10.2,6.4ZM653.406,608c-3.788,6.274-9.5,15.749-8.514,28.435.384,4.885.7,7.876.9,9.754.366,3.407.413,3.849-.478,5.3a18.559,18.559,0,0,0-1.867,4.088c-3.556,9.956-3.175,11.982-2.972,12.371,1,.069,12.11-.036,21.878-.247a1.891,1.891,0,0,1,1.319.547,1.732,1.732,0,0,1,.471,1.341c0,.054-.413,5.846,2.167,10.134.051.083.1.148.148.232.924-2.454,4.088-4.433,10.91-3.715l1-69.812c-8.71.232-17.22.359-24.256.42-.232.377-.449.743-.7,1.156ZM347,461.71c1.1-3.864,3.954-13.863,5.176-18.231.479-1.7,1.117-3.541,1.754-5.371,1.185-3.4,2.657-7.637,2.2-9.228-1.058-3.708,2.617-9.213,5.567-13.625l.359-.54c1.53-2.294,2.084-9.347,2.117-14.171l-4.762-.7c-17.115-2.519-18.728-2.708-20.349-1.537-1.809,1.32-3.563.863-5.259.442a17.594,17.594,0,0,0-8.329-.33c-5,.877-6.992-.975-8.6-2.468-1.334-1.24-2.251-2.124-5.448-1.62-2.845.471-5.161.007-6.858-1.374-2.783-2.273-2.951-6.281-3.045-8.434l-.029-.583c-.345-.877-4.636-2.251-7.764-3.269-.653-.21-1.447-.482-2.146-.721a28.022,28.022,0,0,1-2.033,8.014c-2.414,5.372-12.711,29.365-19.725,37.579-6.19,7.249-3.715,7.271-4.451,12.439C271.949,440.706,302.018,452.573,347,461.71ZM604.331,652.964c-.181-4.36.794-19.043,1.116-23.617-2.414-.826-7.72-2.643-11.171-3.708-1.866-.576-5.524-.054-9.072.449-4.172.6-8.514,1.222-11.508.33a21.4,21.4,0,0,0-5.11-.667,27.159,27.159,0,0,1-13.563-3.661,57.5,57.5,0,0,0-11.534-4.56c-4.868-1.537-9.079-2.86-11.638-5.492a1.691,1.691,0,0,1-.489-1.326L533,584.461l-35.629-3.7-7.158,67.83a1.759,1.759,0,0,1-1.747,1.57H446.23c3.766,4.8,9.612,13.146,15.371,17.383,8.329,6.136,3.36,17.826,17.383,23.665s12.273-7.6,23.665-7.307,11.106,6.136,19.137,22.058,17.075,44.408,37.394,44.408c3.219,0,4.382-2.341,2.776-13.878s4.817-18.847,13.878-24.248,21.765-22.059,33.454-22.356c.406-.007.689.036,1.058.036a20.15,20.15,0,0,0-1.178-7.271,12.465,12.465,0,0,1-.8-3.788,6.193,6.193,0,0,1,2.019-4.313c.975-1.08,1.388-1.613,1.185-2.834-.239-1.381-1.569-4.11-2.853-6.752-2.084-4.3-4.244-8.735-4.389-12Zm58.978,28.543a21.7,21.7,0,0,1-2.693-10.287c-5.6.112-19.137.33-21.134-.076a2.987,2.987,0,0,1-2.062-1.5c-1.029-1.823-.939-5.013,2.729-15.274a21.517,21.517,0,0,1,2.182-4.763,7.509,7.509,0,0,0-.022-3.07c-.167-1.667-.442-4.27-.765-8.21l-33.183.374c-.33,5.524-.631,11.653-.518,14.106.112,2.537,2.294,7.013,4.045,10.609,1.522,3.121,2.834,5.814,3.157,7.684.5,2.947-.961,4.585-2.019,5.778-.743.826-1.127,1.29-1.127,1.972a10.426,10.426,0,0,0,.638,2.729,23.237,23.237,0,0,1,1.344,8.532c6.977.9,7.51,4.255,14.418,4.012,8.184-.3,7.594-1.9,18.112,3.07s22.936,4.824,23.665,1.754c.482-2.048-.33-6.281-1.486-9.971a58.665,58.665,0,0,1-5.281-7.47ZM490.492,803.578c-2.2-3.5-9.312-5.8-10.519-5.7-2.229.188-.66,2.414-1.32,4.6s-3.722,3.723-2.2,6.491.66,5.56,1.319,8.626,3.723,3.07,4.6,1.095,5.042-4.382,7.456-4.824,4.824-2.627,5.7-3.722-2.852-3.056-5.042-6.564Zm-70.859-33.592c-.083,1.457,3.653,3.646,5.259,3.2s3.5-5.111,1.754-5.988S419.781,767.355,419.632,769.986Zm26.738,5.546c-2.628-1.164-4.237,1.754-4.237,1.754.877,2.342,2.628,4.824,5.111,4.668S449,776.7,446.37,775.532Zm23.085,10.954c-4.824-1.9-10.819-3.8-11.106-2.2-.345,1.878,3.947,1.9,5.7,4.973s5.847,4.958,8.036,3.36,2.186-4.23-2.632-6.136Z" transform="translate(-7 4)"/>
  </g>
</svg>
